<svg width="511" height="585" viewBox="0 0 511 585" fill="none" xmlns="http://www.w3.org/2000/svg">
<rect width="511" height="585" rx="25" fill="white"/>
<g opacity="0.08">
<mask id="path-2-inside-1_267_15" fill="white">
<path d="M239.032 253.944C225.208 272.76 206.008 282.168 181.432 282.168C156.856 282.168 137.656 272.76 123.832 253.944C111.16 236.472 104.824 210.072 104.824 174.744C104.824 139.416 111.16 113.016 123.832 95.544C137.656 76.728 156.856 67.32 181.432 67.32C206.008 67.32 225.208 76.728 239.032 95.544C251.704 113.016 258.04 139.416 258.04 174.744C258.04 210.072 251.704 236.472 239.032 253.944ZM160.408 230.04C165.784 237.528 172.792 241.272 181.432 241.272C190.072 241.272 197.08 237.528 202.456 230.04C208.984 220.824 212.248 202.296 212.248 174.456C212.248 147 208.984 128.664 202.456 119.448C197.272 111.96 190.264 108.216 181.432 108.216C172.6 108.216 165.592 111.96 160.408 119.448C153.88 128.856 150.616 147.384 150.616 175.032C150.616 202.488 153.88 220.824 160.408 230.04ZM332.9 279V125.496L290.564 140.76V99.288L378.692 67.32V279H332.9Z"/>
</mask>
<path d="M239.032 253.944L239.838 254.536L239.842 254.531L239.032 253.944ZM123.832 253.944L123.022 254.531L123.026 254.536L123.832 253.944ZM123.832 95.544L123.026 94.9519L123.022 94.9569L123.832 95.544ZM239.032 95.544L239.842 94.9569L239.838 94.9519L239.032 95.544ZM160.408 230.04L159.592 230.618L159.596 230.623L160.408 230.04ZM202.456 230.04L203.268 230.623L203.272 230.618L202.456 230.04ZM202.456 119.448L201.634 120.017L201.64 120.026L202.456 119.448ZM160.408 119.448L161.23 120.018L161.23 120.017L160.408 119.448ZM238.226 253.352C224.602 271.896 205.709 281.168 181.432 281.168V283.168C206.307 283.168 225.814 273.624 239.838 254.536L238.226 253.352ZM181.432 281.168C157.155 281.168 138.262 271.896 124.638 253.352L123.026 254.536C137.05 273.624 156.557 283.168 181.432 283.168V281.168ZM124.642 253.357C112.15 236.134 105.824 209.984 105.824 174.744H103.824C103.824 210.16 110.17 236.81 123.022 254.531L124.642 253.357ZM105.824 174.744C105.824 139.504 112.15 113.354 124.642 96.1311L123.022 94.9569C110.17 112.678 103.824 139.328 103.824 174.744H105.824ZM124.638 96.1361C138.262 77.5919 157.155 68.32 181.432 68.32V66.32C156.557 66.32 137.05 75.864 123.026 94.9519L124.638 96.1361ZM181.432 68.32C205.709 68.32 224.602 77.5919 238.226 96.1361L239.838 94.9519C225.814 75.864 206.307 66.32 181.432 66.32V68.32ZM238.222 96.1311C250.714 113.354 257.04 139.504 257.04 174.744H259.04C259.04 139.328 252.694 112.678 239.842 94.9569L238.222 96.1311ZM257.04 174.744C257.04 209.984 250.714 236.134 238.222 253.357L239.842 254.531C252.694 236.81 259.04 210.16 259.04 174.744H257.04ZM159.596 230.623C165.145 238.352 172.445 242.272 181.432 242.272V240.272C173.139 240.272 166.423 236.704 161.22 229.457L159.596 230.623ZM181.432 242.272C190.419 242.272 197.719 238.352 203.268 230.623L201.644 229.457C196.441 236.704 189.725 240.272 181.432 240.272V242.272ZM203.272 230.618C206.66 225.835 209.142 218.73 210.785 209.405C212.43 200.064 213.248 188.409 213.248 174.456H211.248C211.248 188.343 210.434 199.872 208.815 209.059C207.194 218.262 204.78 225.029 201.64 229.462L203.272 230.618ZM213.248 174.456C213.248 160.694 212.43 149.183 210.785 139.937C209.141 130.706 206.659 123.652 203.272 118.87L201.64 120.026C204.781 124.46 207.195 131.182 208.815 140.287C210.434 149.377 211.248 160.762 211.248 174.456H213.248ZM203.278 118.879C197.914 111.131 190.604 107.216 181.432 107.216V109.216C189.924 109.216 196.63 112.789 201.634 120.017L203.278 118.879ZM181.432 107.216C172.26 107.216 164.95 111.131 159.586 118.879L161.23 120.017C166.234 112.789 172.94 109.216 181.432 109.216V107.216ZM159.586 118.878C156.203 123.753 153.722 130.9 152.079 140.227C150.434 149.568 149.616 161.174 149.616 175.032H151.616C151.616 161.242 152.43 149.76 154.049 140.573C155.67 131.372 158.085 124.551 161.23 120.018L159.586 118.878ZM149.616 175.032C149.616 188.794 150.434 200.305 152.079 209.551C153.723 218.782 156.205 225.836 159.592 230.618L161.224 229.462C158.083 225.028 155.669 218.306 154.049 209.201C152.43 200.111 151.616 188.726 151.616 175.032H149.616ZM332.9 279H331.9V280H332.9V279ZM332.9 125.496H333.9V124.072L332.561 124.555L332.9 125.496ZM290.564 140.76H289.564V142.184L290.903 141.701L290.564 140.76ZM290.564 99.288L290.223 98.3479L289.564 98.587V99.288H290.564ZM378.692 67.32H379.692V65.8935L378.351 66.3799L378.692 67.32ZM378.692 279V280H379.692V279H378.692ZM333.9 279V125.496H331.9V279H333.9ZM332.561 124.555L290.225 139.819L290.903 141.701L333.239 126.437L332.561 124.555ZM291.564 140.76V99.288H289.564V140.76H291.564ZM290.905 100.228L379.033 68.2601L378.351 66.3799L290.223 98.3479L290.905 100.228ZM377.692 67.32V279H379.692V67.32H377.692ZM378.692 278H332.9V280H378.692V278Z" fill="#191B21" mask="url(#path-2-inside-1_267_15)"/>
</g>
</svg>
