<svg width="511" height="585" viewBox="0 0 511 585" fill="none" xmlns="http://www.w3.org/2000/svg">
<rect width="511" height="585" rx="25" fill="white"/>
<g opacity="0.08">
<mask id="path-2-inside-1_267_17" fill="white">
<path d="M232.032 253.944C218.208 272.76 199.008 282.168 174.432 282.168C149.856 282.168 130.656 272.76 116.832 253.944C104.16 236.472 97.824 210.072 97.824 174.744C97.824 139.416 104.16 113.016 116.832 95.544C130.656 76.728 149.856 67.32 174.432 67.32C199.008 67.32 218.208 76.728 232.032 95.544C244.704 113.016 251.04 139.416 251.04 174.744C251.04 210.072 244.704 236.472 232.032 253.944ZM153.408 230.04C158.784 237.528 165.792 241.272 174.432 241.272C183.072 241.272 190.08 237.528 195.456 230.04C201.984 220.824 205.248 202.296 205.248 174.456C205.248 147 201.984 128.664 195.456 119.448C190.272 111.96 183.264 108.216 174.432 108.216C165.6 108.216 158.592 111.96 153.408 119.448C146.88 128.856 143.616 147.384 143.616 175.032C143.616 202.488 146.88 220.824 153.408 230.04ZM278.668 266.04V221.976C300.364 235.224 319.66 241.848 336.556 241.848C346.54 241.848 354.412 239.64 360.172 235.224C366.124 230.808 369.1 224.664 369.1 216.792C369.1 200.472 357.1 192.312 333.1 192.312H312.364V157.752H331.948C342.892 157.752 351.148 155.544 356.716 151.128C362.284 146.52 365.068 140.376 365.068 132.696C365.068 124.824 362.188 118.68 356.428 114.264C350.86 109.848 343.372 107.64 333.964 107.64C320.14 107.64 305.836 111.672 291.052 119.736V78.84C303.724 71.16 319.18 67.32 337.42 67.32C358.54 67.32 376.012 72.888 389.836 84.024C403.852 94.968 410.86 108.696 410.86 125.208C410.86 135.384 408.076 144.6 402.508 152.856C396.94 160.92 389.452 166.776 380.044 170.424V171C391.372 174.84 400.012 181.272 405.964 190.296C411.916 199.128 414.892 209.112 414.892 220.248C414.892 238.488 407.596 253.368 393.004 264.888C378.412 276.408 360.364 282.168 338.86 282.168C314.476 282.168 294.412 276.792 278.668 266.04Z"/>
</mask>
<path d="M232.032 253.944L232.838 254.536L232.842 254.531L232.032 253.944ZM116.832 253.944L116.022 254.531L116.026 254.536L116.832 253.944ZM116.832 95.544L116.026 94.9519L116.022 94.9569L116.832 95.544ZM232.032 95.544L232.842 94.9569L232.838 94.9519L232.032 95.544ZM153.408 230.04L152.592 230.618L152.596 230.623L153.408 230.04ZM195.456 230.04L196.268 230.623L196.272 230.618L195.456 230.04ZM195.456 119.448L194.634 120.017L194.64 120.026L195.456 119.448ZM153.408 119.448L154.23 120.018L154.23 120.017L153.408 119.448ZM231.226 253.352C217.602 271.896 198.709 281.168 174.432 281.168V283.168C199.307 283.168 218.814 273.624 232.838 254.536L231.226 253.352ZM174.432 281.168C150.155 281.168 131.262 271.896 117.638 253.352L116.026 254.536C130.05 273.624 149.557 283.168 174.432 283.168V281.168ZM117.642 253.357C105.15 236.134 98.824 209.984 98.824 174.744H96.824C96.824 210.16 103.17 236.81 116.022 254.531L117.642 253.357ZM98.824 174.744C98.824 139.504 105.15 113.354 117.642 96.1311L116.022 94.9569C103.17 112.678 96.824 139.328 96.824 174.744H98.824ZM117.638 96.1361C131.262 77.5919 150.155 68.32 174.432 68.32V66.32C149.557 66.32 130.05 75.864 116.026 94.9519L117.638 96.1361ZM174.432 68.32C198.709 68.32 217.602 77.5919 231.226 96.1361L232.838 94.9519C218.814 75.864 199.307 66.32 174.432 66.32V68.32ZM231.222 96.1311C243.714 113.354 250.04 139.504 250.04 174.744H252.04C252.04 139.328 245.694 112.678 232.842 94.9569L231.222 96.1311ZM250.04 174.744C250.04 209.984 243.714 236.134 231.222 253.357L232.842 254.531C245.694 236.81 252.04 210.16 252.04 174.744H250.04ZM152.596 230.623C158.145 238.352 165.445 242.272 174.432 242.272V240.272C166.139 240.272 159.423 236.704 154.22 229.457L152.596 230.623ZM174.432 242.272C183.419 242.272 190.719 238.352 196.268 230.623L194.644 229.457C189.441 236.704 182.725 240.272 174.432 240.272V242.272ZM196.272 230.618C199.66 225.835 202.142 218.73 203.785 209.405C205.43 200.064 206.248 188.409 206.248 174.456H204.248C204.248 188.343 203.434 199.872 201.815 209.059C200.194 218.262 197.78 225.029 194.64 229.462L196.272 230.618ZM206.248 174.456C206.248 160.694 205.43 149.183 203.785 139.937C202.141 130.706 199.659 123.652 196.272 118.87L194.64 120.026C197.781 124.46 200.195 131.182 201.815 140.287C203.434 149.377 204.248 160.762 204.248 174.456H206.248ZM196.278 118.879C190.914 111.131 183.604 107.216 174.432 107.216V109.216C182.924 109.216 189.63 112.789 194.634 120.017L196.278 118.879ZM174.432 107.216C165.26 107.216 157.95 111.131 152.586 118.879L154.23 120.017C159.234 112.789 165.94 109.216 174.432 109.216V107.216ZM152.586 118.878C149.203 123.753 146.722 130.9 145.079 140.227C143.434 149.568 142.616 161.174 142.616 175.032H144.616C144.616 161.242 145.43 149.76 147.049 140.573C148.67 131.372 151.085 124.551 154.23 120.018L152.586 118.878ZM142.616 175.032C142.616 188.794 143.434 200.305 145.079 209.551C146.723 218.782 149.205 225.836 152.592 230.618L154.224 229.462C151.083 225.028 148.669 218.306 147.049 209.201C145.43 200.111 144.616 188.726 144.616 175.032H142.616ZM278.668 266.04H277.668V266.568L278.104 266.866L278.668 266.04ZM278.668 221.976L279.189 221.123L277.668 220.194V221.976H278.668ZM360.172 235.224L359.576 234.421L359.57 234.426L359.563 234.43L360.172 235.224ZM312.364 192.312H311.364V193.312H312.364V192.312ZM312.364 157.752V156.752H311.364V157.752H312.364ZM356.716 151.128L357.337 151.911L357.345 151.905L357.353 151.898L356.716 151.128ZM356.428 114.264L355.806 115.047L355.813 115.053L355.819 115.058L356.428 114.264ZM291.052 119.736H290.052V121.421L291.531 120.614L291.052 119.736ZM291.052 78.84L290.533 77.9848L290.052 78.2767V78.84H291.052ZM389.836 84.024L389.208 84.8027L389.214 84.8075L389.22 84.8122L389.836 84.024ZM402.508 152.856L403.331 153.424L403.337 153.415L402.508 152.856ZM380.044 170.424L379.682 169.492L379.044 169.739V170.424H380.044ZM380.044 171H379.044V171.717L379.723 171.947L380.044 171ZM405.964 190.296L405.129 190.847L405.134 190.855L405.964 190.296ZM393.004 264.888L392.384 264.103L393.004 264.888ZM279.668 266.04V221.976H277.668V266.04H279.668ZM278.147 222.829C299.926 236.128 319.405 242.848 336.556 242.848V240.848C319.914 240.848 300.802 234.32 279.189 221.123L278.147 222.829ZM336.556 242.848C346.678 242.848 354.79 240.61 360.78 236.018L359.563 234.43C354.033 238.67 346.401 240.848 336.556 240.848V242.848ZM360.768 236.027C366.992 231.409 370.1 224.958 370.1 216.792H368.1C368.1 224.37 365.256 230.207 359.576 234.421L360.768 236.027ZM370.1 216.792C370.1 208.349 366.973 201.897 360.662 197.605C354.42 193.36 345.182 191.312 333.1 191.312V193.312C345.018 193.312 353.78 195.344 359.537 199.259C365.226 203.127 368.1 208.915 368.1 216.792H370.1ZM333.1 191.312H312.364V193.312H333.1V191.312ZM313.364 192.312V157.752H311.364V192.312H313.364ZM312.364 158.752H331.948V156.752H312.364V158.752ZM331.948 158.752C343.002 158.752 351.519 156.526 357.337 151.911L356.094 150.344C350.776 154.562 342.781 156.752 331.948 156.752V158.752ZM357.353 151.898C363.167 147.087 366.068 140.653 366.068 132.696H364.068C364.068 140.099 361.401 145.953 356.078 150.358L357.353 151.898ZM366.068 132.696C366.068 124.543 363.066 118.093 357.036 113.47L355.819 115.058C361.309 119.267 364.068 125.105 364.068 132.696H366.068ZM357.049 113.48C351.254 108.885 343.524 106.64 333.964 106.64V108.64C343.219 108.64 350.465 110.811 355.806 115.047L357.049 113.48ZM333.964 106.64C319.94 106.64 305.472 110.731 290.573 118.858L291.531 120.614C306.199 112.613 320.34 108.64 333.964 108.64V106.64ZM292.052 119.736V78.84H290.052V119.736H292.052ZM291.57 79.6952C304.053 72.1296 319.32 68.32 337.42 68.32V66.32C319.039 66.32 303.394 70.1904 290.533 77.9848L291.57 79.6952ZM337.42 68.32C358.357 68.32 375.594 73.8358 389.208 84.8027L390.463 83.2452C376.429 71.9401 358.723 66.32 337.42 66.32V68.32ZM389.22 84.8122C403.015 95.5835 409.86 109.03 409.86 125.208H411.86C411.86 108.362 404.688 94.3525 390.451 83.2358L389.22 84.8122ZM409.86 125.208C409.86 135.189 407.133 144.21 401.679 152.297L403.337 153.415C409.019 144.99 411.86 135.579 411.86 125.208H409.86ZM401.685 152.288C396.234 160.182 388.909 165.914 379.682 169.492L380.405 171.356C389.994 167.638 397.645 161.658 403.331 153.424L401.685 152.288ZM379.044 170.424V171H381.044V170.424H379.044ZM379.723 171.947C390.864 175.724 399.312 182.028 405.129 190.847L406.799 189.745C400.711 180.516 391.88 173.956 380.365 170.053L379.723 171.947ZM405.134 190.855C410.97 199.514 413.892 209.302 413.892 220.248H415.892C415.892 208.922 412.862 198.742 406.793 189.737L405.134 190.855ZM413.892 220.248C413.892 238.175 406.741 252.768 392.384 264.103L393.623 265.673C408.45 253.967 415.892 238.801 415.892 220.248H413.892ZM392.384 264.103C377.996 275.463 360.176 281.168 338.86 281.168V283.168C360.552 283.168 378.828 277.353 393.623 265.673L392.384 264.103ZM338.86 281.168C314.621 281.168 294.769 275.825 279.232 265.214L278.104 266.866C294.055 277.759 314.33 283.168 338.86 283.168V281.168Z" fill="#191B21" mask="url(#path-2-inside-1_267_17)"/>
</g>
</svg>
