<svg width="511" height="585" viewBox="0 0 511 585" fill="none" xmlns="http://www.w3.org/2000/svg">
<rect x="-0.000183105" y="-0.000976562" width="511" height="585" rx="25" fill="white"/>
<g opacity="0.08">
<mask id="path-2-inside-1_267_16" fill="white">
<path d="M231.032 253.943C217.208 272.759 198.008 282.167 173.432 282.167C148.856 282.167 129.656 272.759 115.832 253.943C103.16 236.471 96.8239 210.071 96.8239 174.743C96.8239 139.415 103.16 113.015 115.832 95.543C129.656 76.727 148.856 67.319 173.432 67.319C198.008 67.319 217.208 76.727 231.032 95.543C243.704 113.015 250.04 139.415 250.04 174.743C250.04 210.071 243.704 236.471 231.032 253.943ZM152.408 230.039C157.784 237.527 164.792 241.271 173.432 241.271C182.072 241.271 189.08 237.527 194.456 230.039C200.984 220.823 204.248 202.295 204.248 174.455C204.248 146.999 200.984 128.663 194.456 119.447C189.272 111.959 182.264 108.215 173.432 108.215C164.6 108.215 157.592 111.959 152.408 119.447C145.88 128.855 142.616 147.383 142.616 175.031C142.616 202.487 145.88 220.823 152.408 230.039ZM268.74 278.423L332.388 194.327C343.908 178.967 351.972 167.159 356.58 158.903C361.188 150.647 363.492 142.871 363.492 135.575C363.492 126.935 360.612 120.215 354.852 115.415C349.284 110.615 341.796 108.215 332.388 108.215C316.068 108.215 299.844 114.455 283.716 126.935V84.023C299.268 72.887 316.932 67.319 336.708 67.319C357.636 67.319 375.012 73.271 388.836 85.175C402.852 96.887 409.86 112.343 409.86 131.543C409.86 142.679 407.172 154.007 401.796 165.527C396.612 176.855 388.356 190.103 377.028 205.271L351.972 238.391L352.26 238.967H417.348V278.999H269.028L268.74 278.423Z"/>
</mask>
<path d="M231.032 253.943L231.838 254.535L231.841 254.53L231.032 253.943ZM115.832 253.943L115.022 254.53L115.026 254.535L115.832 253.943ZM115.832 95.543L115.026 94.9509L115.022 94.9559L115.832 95.543ZM231.032 95.543L231.841 94.9559L231.838 94.9509L231.032 95.543ZM152.408 230.039L151.592 230.617L151.596 230.622L152.408 230.039ZM194.456 230.039L195.268 230.622L195.272 230.617L194.456 230.039ZM194.456 119.447L193.634 120.016L193.64 120.025L194.456 119.447ZM152.408 119.447L153.23 120.017L153.23 120.016L152.408 119.447ZM230.226 253.351C216.602 271.895 197.709 281.167 173.432 281.167V283.167C198.307 283.167 217.814 273.623 231.838 254.535L230.226 253.351ZM173.432 281.167C149.155 281.167 130.262 271.895 116.638 253.351L115.026 254.535C129.05 273.623 148.557 283.167 173.432 283.167V281.167ZM116.641 253.356C104.15 236.133 97.8239 209.983 97.8239 174.743H95.8239C95.8239 210.159 102.17 236.809 115.022 254.53L116.641 253.356ZM97.8239 174.743C97.8239 139.503 104.15 113.353 116.641 96.1301L115.022 94.9559C102.17 112.677 95.8239 139.327 95.8239 174.743H97.8239ZM116.638 96.1351C130.262 77.591 149.155 68.319 173.432 68.319V66.319C148.557 66.319 129.05 75.8631 115.026 94.9509L116.638 96.1351ZM173.432 68.319C197.709 68.319 216.602 77.591 230.226 96.1351L231.838 94.9509C217.814 75.8631 198.307 66.319 173.432 66.319V68.319ZM230.222 96.1301C242.714 113.353 249.04 139.503 249.04 174.743H251.04C251.04 139.327 244.694 112.677 231.841 94.9559L230.222 96.1301ZM249.04 174.743C249.04 209.983 242.714 236.133 230.222 253.356L231.841 254.53C244.694 236.809 251.04 210.159 251.04 174.743H249.04ZM151.596 230.622C157.145 238.351 164.445 242.271 173.432 242.271V240.271C165.139 240.271 158.423 236.703 153.22 229.456L151.596 230.622ZM173.432 242.271C182.419 242.271 189.719 238.351 195.268 230.622L193.644 229.456C188.441 236.703 181.725 240.271 173.432 240.271V242.271ZM195.272 230.617C198.66 225.834 201.142 218.729 202.785 209.405C204.43 200.063 205.248 188.408 205.248 174.455H203.248C203.248 188.342 202.433 199.871 200.815 209.058C199.194 218.261 196.78 225.028 193.64 229.461L195.272 230.617ZM205.248 174.455C205.248 160.693 204.43 149.182 202.784 139.936C201.141 130.705 198.659 123.651 195.272 118.869L193.64 120.025C196.781 124.459 199.195 131.181 200.815 140.286C202.434 149.376 203.248 160.761 203.248 174.455H205.248ZM195.278 118.878C189.914 111.13 182.604 107.215 173.432 107.215V109.215C181.924 109.215 188.63 112.788 193.634 120.016L195.278 118.878ZM173.432 107.215C164.26 107.215 156.95 111.13 151.586 118.878L153.23 120.016C158.234 112.788 164.94 109.215 173.432 109.215V107.215ZM151.586 118.877C148.203 123.752 145.722 130.899 144.079 140.226C142.434 149.567 141.616 161.173 141.616 175.031H143.616C143.616 161.241 144.43 149.759 146.049 140.573C147.67 131.371 150.084 124.55 153.23 120.017L151.586 118.877ZM141.616 175.031C141.616 188.793 142.434 200.304 144.079 209.55C145.723 218.781 148.205 225.835 151.592 230.617L153.224 229.461C150.083 225.027 147.669 218.305 146.048 209.2C144.43 200.11 143.616 188.725 143.616 175.031H141.616ZM268.74 278.423L267.942 277.82L267.568 278.315L267.845 278.87L268.74 278.423ZM332.388 194.327L333.185 194.931L333.188 194.927L332.388 194.327ZM356.58 158.903L357.453 159.39L356.58 158.903ZM354.852 115.415L354.199 116.172L354.205 116.178L354.212 116.183L354.852 115.415ZM283.716 126.935H282.716V128.973L284.328 127.726L283.716 126.935ZM283.716 84.023L283.133 83.21L282.716 83.5091V84.023H283.716ZM388.836 85.175L388.183 85.9328L388.189 85.9376L388.194 85.9424L388.836 85.175ZM401.796 165.527L400.889 165.104L400.886 165.111L401.796 165.527ZM377.028 205.271L377.825 205.874L377.829 205.869L377.028 205.271ZM351.972 238.391L351.174 237.788L350.8 238.283L351.077 238.838L351.972 238.391ZM352.26 238.967L351.365 239.414L351.642 239.967H352.26V238.967ZM417.348 238.967H418.348V237.967H417.348V238.967ZM417.348 278.999V279.999H418.348V278.999H417.348ZM269.028 278.999L268.133 279.446L268.41 279.999H269.028V278.999ZM269.537 279.027L333.185 194.931L331.59 193.724L267.942 277.82L269.537 279.027ZM333.188 194.927C344.713 179.56 352.811 167.708 357.453 159.39L355.707 158.416C351.133 166.61 343.102 178.374 331.588 193.727L333.188 194.927ZM357.453 159.39C362.12 151.028 364.492 143.085 364.492 135.575H362.492C362.492 142.657 360.255 150.266 355.707 158.416L357.453 159.39ZM364.492 135.575C364.492 126.689 361.516 119.667 355.492 114.647L354.212 116.183C359.707 120.763 362.492 127.181 362.492 135.575H364.492ZM355.505 114.658C349.709 109.661 341.967 107.215 332.388 107.215V109.215C341.625 109.215 348.858 111.569 354.199 116.172L355.505 114.658ZM332.388 107.215C315.796 107.215 299.362 113.563 283.104 126.144L284.328 127.726C300.325 115.347 316.34 109.215 332.388 109.215V107.215ZM284.716 126.935V84.023H282.716V126.935H284.716ZM284.298 84.8361C299.674 73.826 317.133 68.319 336.708 68.319V66.319C316.73 66.319 298.861 71.9481 283.133 83.21L284.298 84.8361ZM336.708 68.319C357.434 68.319 374.567 74.2079 388.183 85.9328L389.488 84.4172C375.456 72.3342 357.838 66.319 336.708 66.319V68.319ZM388.194 85.9424C401.97 97.4535 408.86 112.622 408.86 131.543H410.86C410.86 112.064 403.733 96.3205 389.477 84.4077L388.194 85.9424ZM408.86 131.543C408.86 142.514 406.212 153.698 400.89 165.104L402.702 165.95C408.131 154.316 410.86 142.845 410.86 131.543H408.86ZM400.886 165.111C395.743 176.35 387.532 189.535 376.226 204.673L377.829 205.869C389.18 190.671 397.481 177.36 402.705 165.943L400.886 165.111ZM376.23 204.668L351.174 237.788L352.769 238.994L377.825 205.874L376.23 204.668ZM351.077 238.838L351.365 239.414L353.154 238.52L352.866 237.944L351.077 238.838ZM352.26 239.967H417.348V237.967H352.26V239.967ZM416.348 238.967V278.999H418.348V238.967H416.348ZM417.348 277.999H269.028V279.999H417.348V277.999ZM269.922 278.552L269.634 277.976L267.845 278.87L268.133 279.446L269.922 278.552Z" fill="#191B21" mask="url(#path-2-inside-1_267_16)"/>
</g>
</svg>
